<?xml version="1.0" encoding="UTF-8"?>
<svg xmlns="http://www.w3.org/2000/svg" version="1.1" viewBox="0 0 442.218 202.000" width="442.218" height="202.000">
  <title>KájovoMail - wordmark</title>
  <g id="wordmark">
    <title>KájovoMail wordmark</title>
    <path d="M20.604 102.414 13.0088 110.3324V124.634H0.0V68.07400000000001H13.0088V94.4956L38.056799999999996 68.07400000000001H52.60079999999999L29.1688 93.2836L53.974399999999996 124.634H38.703199999999995Z" fill="#000000"/>
    <path d="M97.36399999999999 99.8284V124.634H85.56719999999999V119.2204Q82.01199999999999 125.2804 72.31599999999999 125.2804Q67.3064 125.2804 63.629999999999995 123.58359999999999Q59.953599999999994 121.8868 58.014399999999995 118.8972Q56.075199999999995 115.9076 56.075199999999995 112.11Q56.075199999999995 106.05 60.64039999999999 102.57560000000001Q65.20559999999999 99.1012 74.74 99.1012H84.75919999999999Q84.75919999999999 94.9804 82.25439999999999 92.7584Q79.74959999999999 90.5364 74.74 90.5364Q71.26559999999999 90.5364 67.91239999999999 91.6272Q64.55919999999999 92.718 62.215999999999994 94.5764L57.691199999999995 85.76920000000001Q61.246399999999994 83.2644 66.2156 81.8908Q71.1848 80.5172 76.43679999999999 80.5172Q86.5368 80.5172 91.9504 85.32480000000001Q97.36399999999999 90.1324 97.36399999999999 99.8284ZM84.75919999999999 110.898V106.45400000000001H76.11359999999999Q68.35679999999999 106.45400000000001 68.35679999999999 111.5444Q68.35679999999999 113.9684 70.25559999999999 115.3824Q72.1544 116.7964 75.46719999999999 116.7964Q78.69919999999999 116.7964 81.204 115.30160000000001Q83.7088 113.8068 84.75919999999999 110.898ZM81.28479999999999 63.9532H94.85919999999999L80.2344 75.58840000000001H70.37679999999999Z" fill="#000000"/>
    <path d="M95.4248 138.5316 98.8184 129.4012Q101.0 130.9364 104.1512 130.9364Q106.5752 130.9364 107.9488 129.36079999999998Q109.3224 127.7852 109.3224 124.634V81.1636H121.9272V124.5532Q121.9272 132.1484 117.6044 136.55200000000002Q113.2816 140.9556 105.5248 140.9556Q98.8992 140.9556 95.4248 138.5316ZM107.78720000000001 68.07400000000001Q107.78720000000001 65.0844 109.96880000000002 63.064400000000006Q112.1504 61.0444 115.62480000000001 61.0444Q119.0992 61.0444 121.2808 62.983599999999996Q123.4624 64.9228 123.4624 67.83160000000001Q123.4624 70.9828 121.2808 73.0432Q119.0992 75.1036 115.62480000000001 75.1036Q112.1504 75.1036 109.96880000000002 73.0836Q107.78720000000001 71.06360000000001 107.78720000000001 68.07400000000001Z" fill="#000000"/>
    <path d="M130.3304 102.8988Q130.3304 96.4348 133.4008 91.34440000000001Q136.4712 86.254 141.92520000000002 83.38560000000001Q147.3792 80.5172 154.2472 80.5172Q161.1152 80.5172 166.5288 83.38560000000001Q171.9424 86.254 175.0128 91.34440000000001Q178.0832 96.4348 178.0832 102.8988Q178.0832 109.36280000000001 175.0128 114.45320000000001Q171.9424 119.5436 166.5288 122.412Q161.1152 125.2804 154.2472 125.2804Q147.3792 125.2804 141.92520000000002 122.412Q136.4712 119.5436 133.4008 114.45320000000001Q130.3304 109.36280000000001 130.3304 102.8988ZM165.3168 102.8988Q165.3168 97.40440000000001 162.20600000000002 94.132Q159.0952 90.8596 154.2472 90.8596Q149.3992 90.8596 146.248 94.132Q143.0968 97.40440000000001 143.0968 102.8988Q143.0968 108.39320000000001 146.248 111.66560000000001Q149.3992 114.938 154.2472 114.938Q159.0952 114.938 162.20600000000002 111.66560000000001Q165.3168 108.39320000000001 165.3168 102.8988Z" fill="#000000"/>
    <path d="M229.6336 81.1636 211.292 124.634H198.2832L180.0224 81.1636H193.0312L205.0704 110.7364L217.5136 81.1636Z" fill="#000000"/>
    <path d="M231.5728 102.8988Q231.5728 96.4348 234.6432 91.34440000000001Q237.7136 86.254 243.1676 83.38560000000001Q248.6216 80.5172 255.4896 80.5172Q262.3576 80.5172 267.7712 83.38560000000001Q273.1848 86.254 276.2552 91.34440000000001Q279.3256 96.4348 279.3256 102.8988Q279.3256 109.36280000000001 276.2552 114.45320000000001Q273.1848 119.5436 267.7712 122.412Q262.3576 125.2804 255.4896 125.2804Q248.6216 125.2804 243.1676 122.412Q237.7136 119.5436 234.6432 114.45320000000001Q231.5728 109.36280000000001 231.5728 102.8988ZM266.5592 102.8988Q266.5592 97.40440000000001 263.4484 94.132Q260.3376 90.8596 255.4896 90.8596Q250.6416 90.8596 247.49040000000002 94.132Q244.3392 97.40440000000001 244.3392 102.8988Q244.3392 108.39320000000001 247.49040000000002 111.66560000000001Q250.6416 114.938 255.4896 114.938Q260.3376 114.938 263.4484 111.66560000000001Q266.5592 108.39320000000001 266.5592 102.8988Z" fill="#000000"/>
    <path d="M349.86400000000003 68.07400000000001V124.634H344.1272V79.386L321.9072 117.4428H319.0792L296.8592 79.6284V124.634H291.1224V68.07400000000001H296.0512L320.6144 110.0092L344.9352 68.07400000000001Z" fill="#737578"/>
    <path d="M399.152 98.2932V124.634H393.6576V118.0084Q391.7184 121.3212 387.96119999999996 123.1796Q384.204 125.038 379.0328 125.038Q371.9224 125.038 367.7208 121.64439999999999Q363.5192 118.2508 363.5192 112.6756Q363.5192 107.262 367.438 103.9492Q371.3568 100.63640000000001 379.9216 100.63640000000001H393.41519999999997V98.05080000000001Q393.41519999999997 92.5564 390.34479999999996 89.688Q387.2744 86.81960000000001 381.376 86.81960000000001Q377.336 86.81960000000001 373.6192 88.15280000000001Q369.9024 89.486 367.236 91.8292L364.6504 87.5468Q367.8824 84.7996 372.4072 83.3048Q376.932 81.81 381.9416 81.81Q390.264 81.81 394.70799999999997 85.97120000000001Q399.152 90.1324 399.152 98.2932ZM393.41519999999997 111.8676V104.9188H380.0832Q369.1752 104.9188 369.1752 112.514Q369.1752 116.2308 372.0032 118.372Q374.83119999999997 120.5132 379.9216 120.5132Q384.76959999999997 120.5132 388.24399999999997 118.2912Q391.7184 116.0692 393.41519999999997 111.8676Z" fill="#737578"/>
    <path d="M414.7464 82.1332H420.4832V124.634H414.7464ZM413.45360000000005 68.72040000000001Q413.45360000000005 67.1044 414.66560000000004 65.89240000000001Q415.87760000000003 64.6804 417.65520000000004 64.6804Q419.43280000000004 64.6804 420.64480000000003 65.852Q421.8568 67.0236 421.8568 68.6396Q421.8568 70.41720000000001 420.64480000000003 71.6292Q419.43280000000004 72.8412 417.65520000000004 72.8412Q415.87760000000003 72.8412 414.66560000000004 71.6292Q413.45360000000005 70.41720000000001 413.45360000000005 68.72040000000001Z" fill="#737578"/>
    <path d="M436.4816 64.6804H442.21840000000003V124.634H436.4816Z" fill="#737578"/>
  </g>
</svg>
