<?xml version='1.0' encoding='utf-8'?>
<svg xmlns="http://www.w3.org/2000/svg" version="1.1" viewBox="0 0 59 202" width="59" height="202">
  <title>signace (cleaned, outlines)</title>
  <g id="layer_background">
    <path d="M6 0 H59 V202 H0 V6 A6 6 0 0 1 6 0 Z" fill="#FF0000" fill-rule="evenodd" />
  </g>
  <g id="layer_foreground">
    <path d="m35.8 177.6l4.1 4-8.9 0.3-12.7-12.3 0.2-8.7 12.8 12.2zm10.3 3.4l-0.1 7.8-28-0.5 0.1-7.8zm0.4-20.2l-0.2 9.2-11.7 9-5.4-5.3zm0.1-5.5l-0.2 8.1-27.8-12.8 0.2-7.8 28.2-11.9-0.2 8.2-24.3 9.3 0.1-3.1zm-5.2-16.6l-0.3 17.8-5.8-2.1 0.3-13.7zm-25 6.3l-0.1 5.4-6-5.4 0.2-7.6zm31.2-23.3q0 3.1-1.1 5.6-1.1 2.5-3.2 4.1l-5-4.4q1.4-1.1 2.2-2.3 0.7-1.2 0.8-2.5 0-3.5-4.1-3.6l-12-0.2-0.1 9.7-6.2-0.1 0.3-17.5 17.7 0.3q5.5 0 8.2 2.9 2.6 2.8 2.5 8zm0.5-30.3q0 3.4-1.2 6.2-1.1 2.9-3.1 4.9-2 2.1-4.6 3.2-2.8 1.1-5.9 1.1-3.2-0.1-5.8-1.3-2.6-1.2-4.5-3.3-2-2.2-3-5-1-2.9-1-6.2 0.1-3.4 1.2-6.2 1.1-2.8 3.2-4.9 1.9-2 4.6-3.1 2.7-1.2 5.8-1.1 3.2 0 5.8 1.3 2.7 1.1 4.6 3.3 1.9 2.1 2.9 4.9 1.1 2.9 1 6.2zm-6.5-0.1q0-1.6-0.5-2.9-0.6-1.4-1.6-2.4-1.1-1.1-2.5-1.7-1.5-0.6-3.3-0.6-1.8-0.1-3.3 0.5-1.5 0.5-2.5 1.6-1.1 0.9-1.7 2.3-0.6 1.4-0.7 3 0 1.6 0.6 3 0.5 1.3 1.6 2.4 1 1 2.5 1.7 1.4 0.5 3.2 0.6 1.8 0 3.4-0.5 1.4-0.6 2.5-1.6 1.1-1 1.7-2.4 0.6-1.4 0.6-3zm6.6-35l-0.2 7.8-28.2 11.5 0.2-8.6 24.4-9.7-0.1 5.1-24.1-10.7 0.2-7.9zm1-27.3q-0.1 3.3-1.2 6.2-1.1 2.8-3.1 4.9-2 2-4.7 3.1-2.7 1.1-5.9 1.1-3.1-0.1-5.7-1.3-2.6-1.2-4.6-3.3-1.9-2.1-2.9-5-1.1-2.9-1-6.2 0-3.4 1.2-6.2 1.1-2.8 3.1-4.9 2-2 4.7-3.1 2.6-1.2 5.8-1.1 3.1 0 5.8 1.3 2.6 1.2 4.5 3.3 2 2.1 3 5 1 2.8 1 6.2zm-6.6-0.1q0.1-1.6-0.4-3-0.6-1.4-1.6-2.4-1.1-1.1-2.5-1.7-1.5-0.6-3.4-0.6-1.8-0.1-3.2 0.5-1.5 0.5-2.6 1.6-1.1 1-1.7 2.3-0.6 1.4-0.6 3 0 1.6 0.5 3 0.6 1.4 1.6 2.4 1 1.1 2.5 1.7 1.5 0.5 3.3 0.6 1.8 0 3.3-0.5 1.5-0.6 2.6-1.6 1-1 1.7-2.3 0.5-1.4 0.5-3z" fill="#FFFFFF" />
  </g>
</svg>